<?xml version="1.0" standalone="no"?><!DOCTYPE svg PUBLIC "-//W3C//DTD SVG 1.1//EN" "http://www.w3.org/Graphics/SVG/1.1/DTD/svg11.dtd"><svg t="1744969967786" class="icon" viewBox="0 0 1024 1024" version="1.1" xmlns="http://www.w3.org/2000/svg" p-id="2974" xmlns:xlink="http://www.w3.org/1999/xlink" width="200" height="200"><path d="M511.99772445 305.24188445c222.93845333 0 403.66193778 98.28352 403.66193777 219.52739555 0 121.23818667-180.72348445 219.52512-403.66193777 219.52512-222.93504 0-403.65397333-98.28807111-403.65397334-219.52512 0-121.24387555 180.71893333-219.52739555 403.65397334-219.52739555z" fill="#EE7C1A" p-id="2975"></path><path d="M511.99772445 747.37550222c-108.09344 0-209.76071111-22.91598222-286.25578667-64.51768889-77.16181333-41.95783111-119.65326222-98.10261333-119.65326223-158.08853333 0-59.99160889 42.49144889-116.13639111 119.65326223-158.10104889 76.49507555-41.60056889 178.16234667-64.50744889 286.25578667-64.50744889 108.10140445 0 209.76071111 22.90688 286.2637511 64.50744889 77.15498667 41.96465778 119.64984889 98.10944 119.6498489 158.10104889 0 59.98705778-42.496 116.13070222-119.6498489 158.08853333-76.50304 41.60170667-178.16234667 64.51768889-286.2637511 64.51768889z m0-439.05251555c-107.54275555 0-208.61724445 22.75669333-284.5957689 64.07850666-75.33112889 40.96455111-116.81336889 95.07612445-116.81336888 152.36778667 0 57.28597333 41.48224 111.39299555 116.81336888 152.35754667 75.97852445 41.32522667 177.05301333 64.07850667 284.5957689 64.07850666 107.54389333 0 208.61952-22.76010667 284.60145777-64.07850666 75.33226667-40.96455111 116.80995555-95.07271111 116.80995556-152.35754667 0-57.29052445-41.47768889-111.40209778-116.80995556-152.36778667-75.98193778-41.32181333-177.05756445-64.07850667-284.60145777-64.07850666z" fill="#6A331A" p-id="2976"></path><path d="M511.99772445 354.06506667c189.97020445 0 343.96956445 77.10037333 343.96956444 172.20039111 0 95.10798222-154.00049778 172.20494222-343.96956444 172.20494222-189.96224 0-343.96501333-77.09696-343.96501334-172.20494222 0-95.10001778 154.00277333-172.20039111 343.96501334-172.20039111z" fill="#F4BC3E" p-id="2977"></path><path d="M193.40060445 596.19214222s23.4496-5.39989333 41.71889777 1.01262223c18.27043555 6.41137778-0.59505778 15.24508445 34.25848889 10.86577777 34.85240889-4.38272 141.18229333-29.93152 169.17276444-57.31669333 37.12910222-20.76899555 112.71168-86.47907555 124.66858667-92.50929778 11.95690667-6.03363555 25.15057778-66.21866667 1.55648-113.96323556-23.59296-47.74229333-40.70855111-42.73038222-40.70855111-42.73038222s-35.86730667-37.06993778-68.83669333-24.95032888c-32.9728 12.11960889-72.24888889 4.02659555-85.11374223 0.74752-12.86826667-3.2768-76.72490667 6.96775111-100.74680888 32.88064-24.02190222 25.91744-51.99303111 41.22168889-70.98481778 63.70872888-18.99178667 22.48931555-51.06232889 93.47868445-39.79264 134.70833778 11.26968889 41.23420445 14.10048 81.33859555 34.80803556 87.54631111z" fill="#F4F4C9" p-id="2978"></path><path d="M254.90659555 611.61699555c-8.46506667 0-10.28323555-2.24483555-12.0877511-5.6672711-1.12184889-2.12764445-2.28238222-4.32810667-8.4844089-6.50467556-5.67978667-1.99452445-12.51214222-3.00487111-20.30705777-3.00487111-10.99548445 0-20.00327111 2.04572445-20.09315556 2.06506667l-0.61326222 0.14108444-0.60188445-0.18090667c-17.00636445-5.09724445-22.45176889-29.28753778-29.34556444-59.91310222-2.13788445-9.49589333-4.34744889-19.31491555-7.07242666-29.28071111-5.06083555-18.51847111-2.00817778-45.43488 8.59818666-75.79079111 8.40135111-24.04693333 21.12967111-48.59107555 31.67118222-61.07477333 9.84291555-11.65539555 21.92384-21.2992 34.71132445-31.50734223 12.14691555-9.69614222 24.70684445-19.72451555 36.34631111-32.28330667 21.13080889-22.79310222 72.81208889-34.23232 95.80657778-34.23232 3.08906667 0 5.53301333 0.22414222 7.26698666 0.66446223 6.63438222 1.69073778 24.22784 5.62289778 44.25272889 5.62176 14.81386667 0 28.08945778-2.11854222 39.45699556-6.2976 4.65806222-1.71121778 9.63015111-2.58048 14.77973333-2.58048 26.51477333 0 50.83591111 22.45632 55.72721778 27.25091555 0.19569778-0.01137778 0.40846222-0.01820445 0.63943111-0.01820444 5.86410667 0 21.63143111 4.30762667 41.34798222 44.20380444 24.02986667 48.62407111 10.94883555 110.29048889-2.61461333 117.13308445-4.40433778 2.22094222-19.08167111 13.90705778-36.07779556 27.43637333-27.55697778 21.93863111-65.25724445 51.95093333-88.23125333 64.87267556-15.87086222 15.30424889-53.72586667 28.90638222-82.76081778 37.63882666-34.15381333 10.27185778-69.89368889 17.89610667-87.54631111 20.11477334-6.38179555 0.80327111-11.21166222 1.19352889-14.76835556 1.19352888z m-40.87921777-19.92476444c8.33308445 0 15.69336889 1.10136889 21.87946667 3.27224889 7.96103111 2.79324445 9.78147555 6.2464 11.1104 8.76999111 1.10023111 2.08782222 1.65319111 3.13571555 7.88821333 3.13571556 3.35644445 0 7.99402667-0.37774222 14.17671111-1.15598222 36.59776-4.60003555 140.71921778-30.15338667 167.80856889-56.65792l0.22528-0.2207289 0.27534222-0.1536c22.60992-12.64526222 60.32497778-42.67235555 87.86375111-64.59505777 18.60949333-14.81614222 32.05575111-25.52035555 36.89699556-27.96088889 4.864-2.45532445 10.98752-17.87221333 12.81365333-39.42058667 1.25496889-14.80931555 1.32209778-43.77372445-12.31644445-71.37166222-19.05777778-38.56156445-33.20945778-41.55847111-37.09155555-41.55847111-0.57344 0-0.87950222 0.07054222-0.88177778 0.07168l-1.37443555 0.40277333-0.93866667-1.04561777c-0.25941333-0.26624-26.14954667-26.66154667-53.17063111-26.66154667-4.58865778 0-9.00892445 0.77027555-13.14133334 2.28920889-11.89546667 4.37134222-25.72060445 6.58887111-41.09539555 6.58887111-20.56192 0-38.61617778-4.03456-45.42350222-5.76853333-0.92842667-0.23665778-2.73976889-0.51882667-6.09507556-0.51882667-21.63712 0-72.41500445 11.23555555-92.32611555 32.71338667-11.88181333 12.81934222-24.58282667 22.95921778-36.86627556 32.76458666-12.60088889 10.06023111-24.50318222 19.56067555-34.04572444 30.85994667-19.59708445 23.20611555-50.15779555 92.88590222-39.31704889 132.55111111 2.75228445 10.07160889 4.97550222 19.94296889 7.12476444 29.49006222 6.21112889 27.59111111 11.58599111 51.46965333 25.51352889 56.22784 2.33472-0.49038222 10.57109333-2.048 20.50730667-2.048z" fill="#FCD770" p-id="2979"></path><path d="M193.00579555 438.06151111c3.30524445-2.20728889 5.18485333-1.63157333 8.47985778-0.37319111a18.90531555 18.90531555 0 0 0 6.08028445 1.24245333l0.73045333-1.32323555-0.11036444 0.03754667c-0.26510222 0.09102222-1.67708445 0.55523555-1.52120889 1.05813333 0.36522667 1.18215111 3.04583111 2.15836445 4.00497777 2.66922667 1.87392 1.00010667 4.19612445 2.29376 6.39089778 2.30513777 2.43029333 0.01592889 4.82531555-0.88177778 6.95864889-1.96380444 2.94912-1.49390222 5.63427555-4.90609778 8.90993778-2.97187556 5.87776 3.46794667 8.76999111 10.51875555 14.40426667 14.38151111 6.22023111 4.26325333 15.62055111 3.44974222 22.73962666 4.76501334 1.03424 0.19114667 4.95047111-1.48252445 3.78993778-1.69528889-7.42627555-1.37329778-16.46364445-0.65991111-22.92849778-5.09269333-5.39761778-3.69891555-8.24092445-10.15580445-13.67267555-13.87861334-4.27576889-2.92977778-9.06695111-0.29013333-12.87395556 2.15495111-0.94663111 0.60643555-3.24721778 2.63623111-4.35313777 2.53610667-1.21628445-0.11150222-2.48263111-0.82944-3.57489778-1.33233778-1.06496-0.49265778-4.82417778-1.85571555-5.20988445-3.10499556l-1.52120889 1.05813334 0.11036445-0.03754667c0.65763555-0.22641778 2.44963555-1.25383111 0.73045333-1.32323555-3.77287111-0.15473778-7.04853333-2.70222222-10.80206222-2.63168-3.79221333 0.07054222-7.11111111 1.41084445-10.24227556 3.50094222-1.85457778 1.23676445 2.72839111 0.52110222 3.48046222 0.01934222zM461.28924445 323.12433778c10.70193778 6.27939555 22.51662222 9.79285333 34.45532444 12.88760889 3.82179555 0.99100445 7.16572445 1.73624889 11.06261333 1.78176 4.08462222 0.04778667 8.16583111 0.20707555 12.23566223 0.53361778 3.31434667 0.26396445 6.88469333 0.51427555 9.99765333 1.76241777 3.51800889 1.40970667 4.28259555 7.09063111 4.32924444 10.28209778 0.05688889 4.00611555-0.56888889 7.93486222-0.09329777 11.94097778 0.55751111 4.71153778 3.63861333 8.22840889 7.52867555 10.65642667 1.83523555 1.14460445 5.77991111-1.34144 3.50549333-2.7602489-9.34570667-5.83224889-5.36576-15.01184-6.55928888-24.07765333-1.04334222-7.94282667-6.90403555-10.11256889-13.81717334-10.99320889-6.64120889-0.84536889-13.40871111-0.93411555-20.09429333-0.93980444-3.05038222-0.00227555-7.19644445-1.87278222-10.12849778-2.65557334a220.19072 220.19072 0 0 1-9.41966222-2.75342222c-6.76522667-2.13902222-13.37002667-4.83100445-19.49696-8.42524444-1.85912889-1.08999111-5.80380445 1.41198222-3.50549333 2.76024889zM341.35495111 493.11857778c10.73834667-5.9392 22.95580445-16.54556445 36.03228444-12.77724445a39.91893333 39.91893333 0 0 1 11.64060445 5.49546667c2.22094222 1.52348445 4.33379555 2.55658667 7.06332445 2.79665778 4.23936 0.37091555 8.68807111-1.26065778 12.62136888-2.59413333 6.64348445-2.25166222 13.13905778-4.10624 20.14549334-4.80256 12.72832-1.26065778 25.66371555 1.19694222 38.41479111 1.25496888 2.13674667 0.01024 4.84238222-0.62691555 6.01998222-2.62940444 1.09340445-1.86026667-0.92387555-3.16757333-2.61461333-3.17667556-13.19936-0.06030222-26.34296889-2.18339555-39.54460445-1.29934222-7.05649778 0.47217778-14.38151111 1.92739555-21.02499555 4.35313778-2.86947555 1.04903111-5.75032889 2.05596445-8.71424 2.80803556-1.27431111 0.32426667-2.02865778 0.28899555-2.57365334 0.12856888-2.03093333-0.59278222-4.88789333-3.20739555-7.08949333-4.36110222-5.32366222-2.78755555-11.43694222-4.66261333-17.45692445-4.70584889-14.47480889-0.10808889-26.69681778 9.50613333-38.77091555 16.18602667-1.49048889 0.82488889-2.52700445 3.00828445-0.67584 4.05617778 2.05027555 1.16167111 4.64440889 0.30833778 6.52743111-0.73272889zM302.60337778 341.23662222c9.61422222 0.04892445 19.25461333 1.44952889 28.86428444 0.73272889 9.18528-0.68721778 17.55704889-3.95377778 25.08913778-9.19210666-1.97176889 0.30492445-3.94353778 0.61098667-5.91644445 0.91477333 4.31217778 4.84238222 7.86318222 11.24010667 13.88885334 14.13575111 8.96682667 4.30648889 19.84056889 3.00828445 29.39221333 2.73635556 6.47736889-0.18318222 12.12074667 1.12071111 17.03708445 5.47157333 3.72849778 3.29841778 6.53198222 7.44220445 10.51306666 10.49144889 8.57088 6.56497778 20.64952889 4.45895111 30.66766222 4.37930666 2.22208-0.01934222 7.43651555-3.41674667 2.81713778-3.38033778-5.22581333 0.04209778-10.45048889 0.49720889-15.67516444 0.18090667-5.84704-0.35271111-10.43456-2.47352889-14.61930667-6.51491555-3.35758222-3.24152889-6.07914667-6.96775111-9.84974222-9.78830222-3.98449778-2.98097778-9.18528-3.98108445-14.05610667-4.16768-10.13077333-0.38912-20.32412445 1.62702222-30.07715555-2.1765689-5.86183111-2.28579555-9.62218667-9.42535111-13.60668445-13.90250666-1.24928-1.40288-4.76728889 0.11605333-5.91644444 0.91477333-6.81984 4.74339555-13.87861333 6.66396445-22.1184 6.72085333-7.87797333 0.05347555-15.73660445-0.89884445-23.61799111-0.93866666-2.23118222-0.00796445-7.43879111 3.35872-2.816 3.38261333zM501.10008889 419.67502222c1.44611555 8.79274667-3.78766222 14.49528889-8.97934222 20.78606223-1.93763555 2.34723555-3.59424 4.85944889-4.03911112 7.9200711-0.59278222 4.08803555 2.29148445 7.77329778 4.83555556 10.60067556 0.71907555 0.79985778 4.92999111-0.85333333 4.33493334-1.51438222-2.60778667-2.89792-4.90609778-6.25436445-4.58410667-10.31509334 0.25941333-3.27224889 2.78869333-6.15651555 4.79800889-8.54812444 5.07335111-6.0416 9.59715555-11.79192889 8.22044444-20.15687111-0.13425778-0.81123555-4.75818667 0.18773333-4.58638222 1.22766222zM237.63057778 546.66353778c7.32273778 13.68746667 27.01084445 10.63480889 39.89959111 11.56778667 8.85077333 0.64170667 17.28056889 3.33710222 25.73198222 5.84362666 9.30816 2.76252445 18.52188445 4.00611555 28.21233778 2.97528889 1.07064889-0.11377778 5.02897778-1.96835555 2.03776-1.65091555-17.99168 1.91374222-33.72145778-7.00643555-51.27168-8.75292445-12.82161778-1.27544889-32.68494222 2.51221333-40.02474667-11.21052445-0.54499555-1.024-4.87310222 0.68721778-4.58524444 1.22766223z" fill="#FCD770" p-id="2980"></path><path d="M311.13216 380.93255111a11.41987555 6.52743111 90 1 0 13.05486222 0 11.41987555 6.52743111 90 1 0-13.05486222 0Z" fill="#9A3224" p-id="2981"></path><path d="M417.94446222 449.37216a14.83434667 7.66748445 0 1 0 29.66869333 0 14.83434667 7.66748445 0 1 0-29.66869333 0Z" fill="#9A3224" p-id="2982"></path><path d="M262.47395555 524.68622222a10.68145778 8.90083555 90 1 0 17.80167112 0 10.68145778 8.90083555 90 1 0-17.80167112 0Z" fill="#548E21" p-id="2983"></path><path d="M468.97607111 305.34997333a10.67235555 9.27402667 0 1 0 21.34471111 0 10.67235555 9.27402667 0 1 0-21.34471111 0Z" fill="#548E21" p-id="2984"></path><path d="M374.03079111 405.57340445a7.71527111 5.18144 0 1 0 15.43054222 0 7.71527111 5.18144 0 1 0-15.43054222 0Z" fill="#548E21" p-id="2985"></path><path d="M218.56256 449.91829333a7.12135111 6.52743111 90 1 0 13.05486222 0 7.12135111 6.52743111 90 1 0-13.05486222 0Z" fill="#548E21" p-id="2986"></path><path d="M403.70289778 519.34663111a14.53738667 5.34072889 0 1 0 29.07477333 0 14.53738667 5.34072889 0 1 0-29.07477333 0Z" fill="#FFCC00" p-id="2987"></path><path d="M351.48231111 442.25649778a7.78922667 7.66065778 0 1 0 15.57845334 0 7.78922667 7.66065778 0 1 0-15.57845334 0Z" fill="#FFCC00" p-id="2988"></path><path d="M447.61315555 350.51064889a7.71413333 5.65134222 0 1 0 15.42826667 0 7.71413333 5.65134222 0 1 0-15.42826667 0Z" fill="#FFCC00" p-id="2989"></path><path d="M542.55616 428.61340445a7.12135111 5.98243555 0 1 0 14.24270222 0 7.12135111 5.98243555 0 1 0-14.24270222 0Z" fill="#FFCC00" p-id="2990"></path><path d="M262.47395555 376.26197333a8.90083555 4.67057778 0 1 0 17.80167112 0 8.90083555 4.67057778 0 1 0-17.80167112 0Z" fill="#FFCC00" p-id="2991"></path><path d="M490.32192 389.27246222a11.11950222 6.23843555 90 1 0 12.47687111 0 11.11950222 6.23843555 90 1 0-12.47687111 0Z" fill="#FFFFFF" p-id="2992"></path><path d="M247.04341333 409.72629333a9.33432889 7.71527111 90 1 0 15.43054222 0 9.33432889 7.71527111 90 1 0-15.43054222 0Z" fill="#FFFFFF" p-id="2993"></path><path d="M225.08885333 499.77457778a7.41831111 3.57148445 0 1 0 14.83662222 0 7.41831111 3.57148445 0 1 0-14.83662222 0Z" fill="#FFFFFF" p-id="2994"></path><path d="M332.4928 561.28625778a7.12135111 4.93795555 0 1 0 14.24270222 0 7.12135111 4.93795555 0 1 0-14.24270222 0Z" fill="#FFFFFF" p-id="2995"></path><path d="M378.77873778 323.52483555a8.90083555 8.30805333 90 1 0 16.61610667 0 8.90083555 8.30805333 90 1 0-16.61610667 0Z" fill="#FFFFFF" p-id="2996"></path><path d="M299.26286222 318.18410667a9.19779555 3.56010667 0 1 0 18.39559111 0 9.19779555 3.56010667 0 1 0-18.39559111 0Z" fill="#FFFFFF" p-id="2997"></path><path d="M404.39580445 405.05912889a10.33443555 4.66716445 0 1 0 20.6688711 0 10.33443555 4.66716445 0 1 0-20.6688711 0Z" fill="#FFFFFF" p-id="2998"></path><path d="M486.25550222 647.44789333s-6.34993778 39.61059555 36.19612445 18.84615112c22.73507555-14.10389333 19.84284445-29.01447111 19.09191111-32.90225778 10.0352-4.46577778 27.83800889-14.25749333 30.32632889-15.51132445-8.80184889-7.40920889-12.17194667-11.25034667-13.25056-22.21283555-26.68430222 14.86279111-28.55480889 17.03822222-28.55480889 17.03822222s-3.53166222-11.57688889-12.51669333-12.32213334c-8.98503111-0.74752-66.9696 16.36238222-34.83306667 44.01379556 3.62154667 2.24483555 3.54076445 3.05038222 3.54076444 3.05038222z" fill="#F9DBAF" p-id="2999"></path><path d="M554.78158222 586.73834667s15.9232-144.67754667 197.86183111-168.81322667c45.61009778-0.4608 68.06186667 18.02808889 77.21528889 35.67616 9.15114667 17.65376-0.97507555 106.48576-55.85692444 140.02062222s-157.71534222 68.54542222-212.55850667 15.81511111c-5.86524445-19.10328889-6.66168889-22.69866667-6.66168889-22.69866666z" fill="#CD6D13" p-id="3000"></path><path d="M640.80099555 495.83559111s78.66481778-81.42392889 132.05390223-51.24778666c39.22147555 19.35701333 31.49368889 34.27896889 30.83150222 35.81496888-0.66332445 1.53713778-5.34983111 10.5472-17.09056-7.00984888-14.32917333-12.41998222-32.73272889-33.50186667-103.02236445-3.93329778-33.55989333 24.36096-37.31683555 29.97248-39.23057777 29.42748444-1.91146667-0.54613333-3.54190222-3.05152-3.54190223-3.05152z" fill="#E29712" p-id="3001"></path><path d="M557.09582222 573.31370667s55.63278222 67.60903111 192.12174223-1.04220445c28.15203555-16.86869333 75.28220445-67.87072 78.88440888-75.45742222-3.02193778 19.37180445-13.57027555 124.10311111-180.41969778 136.02929778-67.83203555-10.39132445-75.16842667-13.45991111-81.66627555-28.71864889-6.49557333-15.25304889-8.92017778-30.81102222-8.92017778-30.81102222z" fill="#BD541E" p-id="3002"></path><path d="M371.16131555 606.69155555s1.00920889-28.82332445-31.39356444-9.91345777c-32.40277333 18.91214222-33.10250667 22.7328-33.04561778 31.39470222 0.05461333 8.65848889 9.60170667 78.43953778 64.43918222 56.18005333 38.39544889-25.20291555 21.81688889-16.73557333 19.82691556-24.78535111-1.98656-8.05091555-28.63672889-13.02983111-21.47783111-18.17713777 7.15776-5.14389333 23.16856889-12.55879111 14.86848-21.48010667-8.29895111-8.92017778-13.21756445-13.21870222-13.21756445-13.21870223z" fill="#633211" p-id="3003"></path><path d="M401.27374222 600.11975111s-5.94602667-27.90513778-32.50631111-1.98314666c-26.56028445 25.92312889-26.31452445 29.75630222-24.18232889 38.0563911 2.12878222 8.29781333 28.03029333 72.97706667 75.31975111 38.45802667 30.80419555-33.39832889 16.92444445-21.29351111 13.08330667-28.54343111s-30.60963555-5.63427555-24.97308445-12.29255111c5.63427555-6.65144889 19.22275555-17.61052445 9.11701334-24.18005333-10.10801778-6.57066667-15.85834667-9.51523555-15.85834667-9.51523556z" fill="#C6302E" p-id="3004"></path><path d="M614.46485333 349.26023111s-44.92856889 58.10744889 13.88430222 69.71050667c41.67224889-19.40593778 11.78965333-54.56099555-13.88430222-69.71050667z" fill="#77AC44" p-id="3005"></path><path d="M614.88924445 348.91662222s13.48266667 8.45141333 21.3754311 27.69237333c7.89390222 19.24437333 2.97528889 31.13870222 0.16839112 34.83648-2.80462222 3.69891555-7.66065778 9.77692445-15.27808 3.35189334-7.61628445-6.42730667-22.41991111-17.36248889-6.26574222-65.88074667z" fill="#97C265" p-id="3006"></path><path d="M614.88128 353.94446222s5.74008889 56.90709333 12.03541333 61.27502223c4.37816889-5.90506667-4.22912-51.02592-12.03541333-61.27502223z" fill="#77AC44" p-id="3007"></path><path d="M690.14641778 408.64540445s-47.78780445-44.34375111-62.73024 6.71971555c13.83537778 38.38179555 47.29059555 14.76949333 62.73024-6.71971555z" fill="#77AC44" p-id="3008"></path><path d="M690.41379555 409.04817778s-8.54471111 11.24352-26.18026666 16.68778667c-17.64010667 5.44540445-27.76291555 0.14904889-30.80874667-2.62599112-3.04583111-2.77390222-8.03271111-7.55143111-1.74421333-13.77052444 6.28622222-6.22023111 17.13379555-18.43427555 58.73322666-0.29127111z" fill="#97C265" p-id="3009"></path><path d="M685.96963555 408.64085333s-50.75968 0.54158222-55.12192 5.75715556c4.86968889 4.34062222 45.44170667 0.32654222 55.12192-5.75715556z" fill="#77AC44" p-id="3010"></path></svg>